<svg width="250" height="41" viewBox="0 0 250 41" fill="none" xmlns="http://www.w3.org/2000/svg">
<path d="M132.371 35.8475V31.0021L136.247 30.1715V11.593L131.955 10.7623V5.88929H143.778L144.138 10.1809C145.135 8.64884 146.362 7.45826 147.82 6.60917C149.297 5.76008 150.977 5.33553 152.86 5.33553C155.831 5.33553 158.157 6.28614 159.837 8.18737C161.517 10.0886 162.356 13.0697 162.356 17.1305V30.1715L166.233 31.0021V35.8475H150.783V31.0021L154.244 30.1715V17.1582C154.244 15.1462 153.847 13.7249 153.053 12.8943C152.26 12.0452 151.078 11.6207 149.509 11.6207C148.346 11.6207 147.331 11.8698 146.464 12.3682C145.615 12.8482 144.904 13.5403 144.332 14.4448V30.1715L147.599 31.0021V35.8475H132.371ZM182.845 36.4289C179.892 36.4289 177.354 35.7829 175.231 34.4908C173.109 33.1987 171.484 31.4082 170.358 29.1193C169.232 26.812 168.669 24.1632 168.669 21.1729V20.5915C168.669 17.6197 169.232 14.9893 170.358 12.7005C171.484 10.3932 173.099 8.59346 175.204 7.30136C177.326 5.99081 179.855 5.33553 182.79 5.33553C185.762 5.33553 188.3 5.99081 190.404 7.30136C192.508 8.59346 194.124 10.3839 195.25 12.6728C196.375 14.9617 196.938 17.6012 196.938 20.5915V21.1729C196.938 24.1632 196.375 26.812 195.25 29.1193C194.124 31.4082 192.508 33.1987 190.404 34.4908C188.3 35.7829 185.78 36.4289 182.845 36.4289ZM182.845 30.2269C184.248 30.2269 185.393 29.8485 186.279 29.0917C187.165 28.3349 187.82 27.2827 188.245 25.9352C188.669 24.5693 188.881 22.9819 188.881 21.1729V20.5915C188.881 18.8195 188.669 17.2597 188.245 15.9123C187.82 14.5463 187.155 13.485 186.251 12.7282C185.365 11.9529 184.211 11.5653 182.79 11.5653C181.406 11.5653 180.261 11.9529 179.357 12.7282C178.452 13.485 177.788 14.5463 177.363 15.9123C176.957 17.2597 176.754 18.8195 176.754 20.5915V21.1729C176.754 22.9819 176.957 24.5693 177.363 25.9352C177.788 27.3012 178.452 28.3625 179.357 29.1193C180.261 29.8577 181.424 30.2269 182.845 30.2269ZM209.536 35.8475L202.559 11.4268L198.904 10.7623V5.88929H213.385V10.7346L210.229 11.3438L212.997 23.0003L213.551 25.2984H213.717L214.465 23.0003L220.612 5.88929H226.038L231.991 23.2218L232.766 25.6584H232.933L233.652 23.2218L236.92 11.3715L233.431 10.7346V5.88929H247.607V10.7623L244.118 11.4268L236.504 35.8475H229.693L224.211 21.0068L223.242 17.712H223.076L222.107 21.0345L216.708 35.8475H209.536Z" fill="#445C3C"/>
<path d="M17.0637 36.4289C14.2026 36.4289 11.7015 35.8013 9.56027 34.5461C7.41908 33.2725 5.75781 31.5282 4.57646 29.3132C3.41358 27.0981 2.83213 24.5693 2.83213 21.7267V20.6192C2.83213 17.6474 3.38589 15.017 4.4934 12.7282C5.60091 10.4209 7.16066 8.61192 9.17264 7.30136C11.2031 5.97235 13.5935 5.31707 16.3438 5.33553C19.0572 5.33553 21.3368 5.87083 23.1827 6.94142C25.0285 8.01202 26.4314 9.5533 27.3912 11.5653C28.351 13.5773 28.831 16.0138 28.831 18.8749V23.2772H11.2215L11.1662 23.4433C11.2769 24.7539 11.5999 25.926 12.1352 26.9597C12.689 27.9749 13.4642 28.7779 14.461 29.3685C15.4578 29.9407 16.6668 30.2269 18.0881 30.2269C19.5648 30.2269 20.9399 30.0423 22.2136 29.6731C23.5057 29.2855 24.7609 28.7225 25.9791 27.9841L28.1665 32.9679C26.9297 33.9647 25.37 34.7953 23.4872 35.4598C21.6229 36.1059 19.4817 36.4289 17.0637 36.4289ZM11.2769 17.9335H21.2722V17.2136C21.2722 15.9953 21.1061 14.9524 20.7738 14.0849C20.46 13.1989 19.9432 12.5159 19.2233 12.036C18.5219 11.5561 17.6082 11.3161 16.4822 11.3161C15.4116 11.3161 14.5071 11.6022 13.7688 12.1744C13.0305 12.7282 12.449 13.4942 12.0245 14.4725C11.6184 15.4508 11.3415 16.5583 11.1938 17.795L11.2769 17.9335ZM32.2643 35.8475V31.0021L36.1405 30.1715V11.593L31.8489 10.7623V5.88929H43.6716L44.0316 10.1809C45.0283 8.64884 46.2558 7.45826 47.714 6.60917C49.1907 5.76008 50.8704 5.33553 52.7532 5.33553C55.725 5.33553 58.0508 6.28614 59.7305 8.18737C61.4103 10.0886 62.2501 13.0697 62.2501 17.1305V30.1715L66.1264 31.0021V35.8475H50.6766V31.0021L54.1376 30.1715V17.1582C54.1376 15.1462 53.7407 13.7249 52.947 12.8943C52.1533 12.0452 50.972 11.6207 49.403 11.6207C48.2401 11.6207 47.2249 11.8698 46.3573 12.3682C45.5082 12.8482 44.7976 13.5403 44.2254 14.4448V30.1715L47.4925 31.0021V35.8475H32.2643ZM78.1152 35.8475L69.0613 11.2607L65.8219 10.7623V5.88929H80.3579V10.7346L77.2015 11.2884L81.7146 24.8831L82.4068 27.2089H82.573L83.3482 24.8831L88.3043 11.3161L84.6219 10.7346V5.88929H99.1303V10.7623L95.8077 11.3161L86.3385 35.8475H78.1152Z" fill="#445C3C"/>
<path d="M115.376 37.3103C112.43 37.3103 109.765 36.5964 107.382 35.1687C104.999 33.6978 103.136 31.7726 101.793 29.3931C100.45 26.9703 99.7787 24.3529 99.7787 21.5408C99.7787 18.7719 100.45 16.1978 101.793 13.8183C103.18 11.4388 105.043 9.55683 107.382 8.1724C109.765 6.74471 112.408 6.03087 115.311 6.03087C118.17 6.03087 120.77 6.74471 123.109 8.1724C125.492 9.55683 127.355 11.4388 128.698 13.8183C130.041 16.1978 130.713 18.7719 130.713 21.5408C130.713 24.4394 130.063 27.1001 128.763 29.5229C127.463 31.9024 125.644 33.806 123.304 35.2336C121.008 36.6181 118.365 37.3103 115.376 37.3103ZM115.376 35.4932C117.845 35.4932 120.098 34.8659 122.134 33.6113C124.171 32.3566 125.752 30.691 126.878 28.6143C128.048 26.4944 128.633 24.1799 128.633 21.6706C128.633 19.2046 128.048 16.9116 126.878 14.7917C125.709 12.6718 124.106 10.9845 122.069 9.72989C120.033 8.47525 117.78 7.84793 115.311 7.84793C112.841 7.84793 110.567 8.49688 108.487 9.79478C106.451 11.0494 104.826 12.7367 103.613 14.8566C102.443 16.9765 101.858 19.2695 101.858 21.7355C101.858 24.2015 102.443 26.4944 103.613 28.6143C104.826 30.691 106.451 32.3566 108.487 33.6113C110.567 34.8659 112.863 35.4932 115.376 35.4932Z" fill="#445C3C"/>
<path d="M124.972 18.3106C126.214 22.0775 126.224 25.8325 125.26 28.8508C124.296 31.8698 122.374 34.1147 119.769 34.9712C117.163 35.8278 114.282 35.1617 111.711 33.305C109.14 31.4487 106.914 28.4221 105.672 24.6552C104.43 20.8882 104.42 17.1332 105.384 14.1149C106.348 11.0959 108.27 8.85107 110.875 7.99452C113.481 7.13797 116.362 7.80407 118.934 9.66077C121.505 11.517 123.73 14.5437 124.972 18.3106Z" stroke="#445C3C" stroke-width="1.00483"/>
<path d="M119.185 20.2129C120.445 24.0351 121.098 27.635 121.144 30.3573C121.168 31.7216 121.038 32.836 120.776 33.6394C120.51 34.455 120.144 34.8477 119.769 34.9712C119.393 35.0946 118.866 34.9955 118.167 34.4973C117.478 34.0064 116.711 33.1868 115.918 32.0754C114.336 29.8578 112.719 26.5749 111.459 22.7527C110.199 18.9306 109.547 15.3307 109.5 12.6083C109.477 11.244 109.606 10.1297 109.868 9.3262C110.134 8.51063 110.5 8.1179 110.876 7.99447C111.251 7.87103 111.779 7.97012 112.478 8.46835C113.167 8.95918 113.934 9.77884 114.727 10.8902C116.309 13.1078 117.925 16.3908 119.185 20.2129Z" stroke="#445C3C" stroke-width="1.00483"/>
<path d="M114.05 17.6259C117.878 16.3676 121.483 15.716 124.21 15.6695C125.576 15.6461 126.692 15.7754 127.497 16.0372C128.314 16.3031 128.707 16.6681 128.83 17.0423C128.953 17.4165 128.854 17.9431 128.355 18.6416C127.864 19.3296 127.043 20.0956 125.93 20.8873C123.709 22.4671 120.421 24.0815 116.593 25.3398C112.766 26.5981 109.16 27.2496 106.434 27.2962C105.068 27.3195 103.952 27.1903 103.147 26.9284C102.33 26.6626 101.937 26.2976 101.814 25.9234C101.69 25.5492 101.789 25.0226 102.288 24.3241C102.78 23.6361 103.601 22.8701 104.714 22.0783C106.935 20.4986 110.223 18.8842 114.05 17.6259Z" stroke="#445C3C" stroke-width="1.00483"/>
<path d="M129.96 8.9342C130.255 8.81492 130.281 8.70297 130.084 8.45265C130.04 8.39641 129.992 8.34331 129.934 8.27582C129.996 8.26432 130.047 8.26039 130.094 8.2447C130.201 8.20965 130.217 8.13405 130.137 8.05192C130.101 8.01582 130.062 7.9826 130.021 7.95436C129.227 7.41003 128.507 6.76107 127.773 6.13304C127.713 6.08177 127.653 6.02998 127.619 6.00095C127.641 5.85682 127.65 5.73728 127.677 5.62272C127.72 5.44328 127.721 5.24396 127.938 5.16C128.073 5.10742 128.197 5.01195 128.245 4.84271C128.254 4.81159 128.306 4.79197 128.341 4.77209C128.446 4.71193 128.53 4.63843 128.552 4.50163C128.558 4.46317 128.597 4.42263 128.63 4.39857C128.8 4.27641 128.835 4.21651 128.843 3.99758C128.874 3.98398 128.908 3.96828 128.942 3.95442C129.057 3.90629 129.11 3.81605 129.085 3.6871C129.072 3.61909 129.085 3.58482 129.145 3.55526C129.253 3.50217 129.341 3.42579 129.348 3.28428C129.349 3.27172 129.352 3.25655 129.36 3.24792C129.484 3.11216 129.609 2.97876 129.732 2.8417C129.841 2.72007 130.001 2.61126 130.039 2.46739C130.087 2.28037 130.193 2.1781 130.31 2.06274C130.436 1.93928 130.537 1.80039 130.532 1.60055C130.532 1.56811 130.582 1.52862 130.615 1.50246C130.726 1.4164 130.822 1.32668 130.778 1.15719C130.772 1.13469 130.796 1.10409 130.803 1.07636C130.812 1.04079 130.817 1.00417 130.824 0.968071C130.786 0.967287 130.745 0.954993 130.712 0.96781C130.392 1.09206 130.073 1.21604 129.757 1.34918C129.231 1.57073 128.707 1.80274 128.238 2.14383C128.044 2.28508 127.879 2.47105 127.701 2.63715C127.677 2.65991 127.657 2.69234 127.629 2.70516C127.127 2.93508 126.743 3.32717 126.369 3.73339C126.186 3.93271 126.004 4.13386 125.821 4.3337C125.793 4.3643 125.763 4.39229 125.718 4.43728C125.662 4.33317 125.613 4.24058 125.564 4.14772C125.466 3.96593 125.375 3.78074 125.271 3.60339C125.058 3.23798 124.734 3.0813 124.342 3.11583C124.142 3.13335 123.948 3.21653 123.75 3.26675C123.714 3.27591 123.674 3.27512 123.636 3.27068C123.604 3.26675 123.568 3.23379 123.544 3.24347C123.367 3.31227 123.182 3.25629 123.004 3.29134C122.961 3.29971 122.915 3.3018 122.872 3.29762C122.235 3.23432 121.599 3.16892 120.962 3.10562C120.907 3.10013 120.852 3.10484 120.797 3.10484C120.795 3.11766 120.792 3.13021 120.79 3.14303C120.896 3.17363 121.001 3.21182 121.108 3.23406C121.715 3.35935 122.324 3.47915 122.93 3.60601C123 3.6204 123.071 3.65388 123.128 3.6986C123.385 3.89975 123.61 4.13726 123.762 4.43676C123.829 4.57042 123.876 4.72553 123.895 4.87619C123.974 5.48853 124.152 6.06294 124.454 6.58974C124.601 6.84556 124.837 7.00067 125.068 7.16284C125.602 7.53924 126.193 7.7846 126.788 8.02236C126.84 8.04329 126.891 8.07572 126.933 8.1147C127.068 8.24077 127.21 8.3352 127.41 8.25621C127.508 8.52981 127.597 8.80001 127.702 9.06289C127.863 9.46754 128.025 9.87219 128.207 10.2661C128.274 10.4097 128.386 10.5384 128.501 10.6438C128.565 10.7016 128.687 10.733 128.767 10.711C128.868 10.6831 128.841 10.5538 128.841 10.4594C128.841 10.4382 128.841 10.417 128.841 10.3634C128.929 10.4367 129 10.4973 129.072 10.5541C129.141 10.6072 129.208 10.6802 129.304 10.625C129.399 10.5693 129.422 10.4675 129.409 10.365C129.388 10.2073 129.353 10.0519 129.318 9.85963C129.434 9.947 129.523 10.0202 129.617 10.0846C129.704 10.1437 129.797 10.2452 129.903 10.1515C130.013 10.0555 129.947 9.93052 129.901 9.82772C129.822 9.64829 129.728 9.47617 129.64 9.30092C129.648 9.29019 129.656 9.27947 129.663 9.26875C129.746 9.30798 129.829 9.34957 129.913 9.38619C130.007 9.42726 130.117 9.49056 130.191 9.37233C130.259 9.26195 130.18 9.16569 130.111 9.08329C130.069 9.03229 130.018 8.99017 129.96 8.9342Z" fill="#445C3C"/>
</svg>
